STARTFONT 2.1
FONT -artwiz-snap-normal-r-normal--10-100-75-75-p-90-ISO8859-1
SIZE 10 75 75
FONTBOUNDINGBOX 8 10 0 -2
STARTPROPERTIES 27
FONTNAME_REGISTRY ""
FOUNDRY "artwiz"
FAMILY_NAME "snap"
WEIGHT_NAME "normal"
SLANT "r"
SETWIDTH_NAME "normal"
ADD_STYLE_NAME ""
PIXEL_SIZE 10
POINT_SIZE 100
RESOLUTION_X 75
RESOLUTION_Y 75
SPACING "p"
AVERAGE_WIDTH 90
CHARSET_REGISTRY "ISO8859"
CHARSET_ENCODING "1"
COPYRIGHT "artwiz, fixed by aLEczapKA, latin1 chars by Sergio Martins"
FACE_NAME "snap"
WEIGHT 10
RESOLUTION 99
X_HEIGHT 6
QUAD_WIDTH 7
_XMBDFED_INFO "Edited with xmbdfed 4.7."
DEFAULT_CHAR 63
FONT_ASCENT 8
FONT_DESCENT 2
_ORIGINAL_FONT_NAME "snap"
_GBDFED_INFO "Edited with gbdfed 1.0."
ENDPROPERTIES
CHARS 190
STARTCHAR char0
ENCODING 0
SWIDTH 0 0
DWIDTH 0 0
BBX 0 0 0 0
BITMAP
ENDCHAR
STARTCHAR char32
ENCODING 32
SWIDTH 480 0
DWIDTH 5 0
BBX 0 0 0 0
BITMAP
ENDCHAR
STARTCHAR char33
ENCODING 33
SWIDTH 288 0
DWIDTH 3 0
BBX 2 8 1 -1
BITMAP
C0
C0
C0
C0
C0
00
C0
C0
ENDCHAR
STARTCHAR char34
ENCODING 34
SWIDTH 576 0
DWIDTH 6 0
BBX 5 4 1 3
BITMAP
D8
D8
D8
D8
ENDCHAR
STARTCHAR char35
ENCODING 35
SWIDTH 672 0
DWIDTH 7 0
BBX 7 5 0 1
BITMAP
6C
FE
6C
FE
6C
ENDCHAR
STARTCHAR char36
ENCODING 36
SWIDTH 576 0
DWIDTH 6 0
BBX 5 9 1 -1
BITMAP
20
F8
F8
E0
F8
38
F8
F8
20
ENDCHAR
STARTCHAR char37
ENCODING 37
SWIDTH 672 0
DWIDTH 7 0
BBX 7 6 0 0
BITMAP
76
5C
78
3E
6A
CE
ENDCHAR
STARTCHAR char38
ENCODING 38
SWIDTH 672 0
DWIDTH 7 0
BBX 6 7 1 0
BITMAP
70
D8
70
74
D8
D8
74
ENDCHAR
STARTCHAR char39
ENCODING 39
SWIDTH 384 0
DWIDTH 4 0
BBX 2 3 2 4
BITMAP
C0
C0
C0
ENDCHAR
STARTCHAR char40
ENCODING 40
SWIDTH 384 0
DWIDTH 4 0
BBX 4 10 0 -2
BITMAP
30
60
C0
C0
C0
C0
C0
C0
60
30
ENDCHAR
STARTCHAR char41
ENCODING 41
SWIDTH 480 0
DWIDTH 5 0
BBX 4 10 1 -2
BITMAP
C0
60
30
30
30
30
30
30
60
C0
ENDCHAR
STARTCHAR char42
ENCODING 42
SWIDTH 672 0
DWIDTH 7 0
BBX 7 5 0 2
BITMAP
C6
6C
10
6C
C6
ENDCHAR
STARTCHAR char43
ENCODING 43
SWIDTH 672 0
DWIDTH 7 0
BBX 6 6 1 0
BITMAP
30
30
FC
FC
30
30
ENDCHAR
STARTCHAR char44
ENCODING 44
SWIDTH 384 0
DWIDTH 4 0
BBX 3 4 1 -2
BITMAP
60
60
60
C0
ENDCHAR
STARTCHAR char45
ENCODING 45
SWIDTH 576 0
DWIDTH 6 0
BBX 5 2 1 3
BITMAP
F8
F8
ENDCHAR
STARTCHAR char46
ENCODING 46
SWIDTH 288 0
DWIDTH 3 0
BBX 2 2 1 0
BITMAP
C0
C0
ENDCHAR
STARTCHAR char47
ENCODING 47
SWIDTH 576 0
DWIDTH 6 0
BBX 5 8 1 -1
BITMAP
18
18
30
30
60
60
C0
C0
ENDCHAR
STARTCHAR char48
ENCODING 48
SWIDTH 672 0
DWIDTH 7 0
BBX 6 6 1 0
BITMAP
FC
FC
CC
CC
FC
FC
ENDCHAR
STARTCHAR char49
ENCODING 49
SWIDTH 384 0
DWIDTH 4 0
BBX 3 7 1 0
BITMAP
E0
E0
60
60
60
60
60
ENDCHAR
STARTCHAR char50
ENCODING 50
SWIDTH 672 0
DWIDTH 7 0
BBX 5 7 1 0
BITMAP
F8
F8
18
F8
C0
F8
F8
ENDCHAR
STARTCHAR char51
ENCODING 51
SWIDTH 672 0
DWIDTH 7 0
BBX 5 7 1 0
BITMAP
F8
F8
18
F8
18
F8
F8
ENDCHAR
STARTCHAR char52
ENCODING 52
SWIDTH 672 0
DWIDTH 7 0
BBX 5 6 1 0
BITMAP
D8
D8
F8
F8
18
18
ENDCHAR
STARTCHAR char50
ENCODING 53
SWIDTH 672 0
DWIDTH 7 0
BBX 5 7 1 0
BITMAP
F8
F8
C0
F8
18
F8
F8
ENDCHAR
STARTCHAR char54
ENCODING 54
SWIDTH 576 0
DWIDTH 6 0
BBX 6 7 1 0
BITMAP
FC
FC
C0
FC
CC
FC
FC
ENDCHAR
STARTCHAR char55
ENCODING 55
SWIDTH 480 0
DWIDTH 5 0
BBX 4 7 1 0
BITMAP
F0
F0
30
30
30
30
30
ENDCHAR
STARTCHAR char56
ENCODING 56
SWIDTH 672 0
DWIDTH 7 0
BBX 6 7 1 0
BITMAP
FC
FC
CC
FC
CC
FC
FC
ENDCHAR
STARTCHAR char57
ENCODING 57
SWIDTH 672 0
DWIDTH 7 0
BBX 6 7 1 0
BITMAP
FC
FC
DC
FC
FC
0C
0C
ENDCHAR
STARTCHAR char58
ENCODING 58
SWIDTH 288 0
DWIDTH 3 0
BBX 2 6 1 0
BITMAP
C0
C0
00
00
C0
C0
ENDCHAR
STARTCHAR char59
ENCODING 59
SWIDTH 384 0
DWIDTH 4 0
BBX 3 7 1 -1
BITMAP
60
60
00
00
60
60
C0
ENDCHAR
STARTCHAR char60
ENCODING 60
SWIDTH 576 0
DWIDTH 6 0
BBX 5 7 1 0
BITMAP
18
30
60
C0
60
30
18
ENDCHAR
STARTCHAR char61
ENCODING 61
SWIDTH 672 0
DWIDTH 7 0
BBX 6 5 1 1
BITMAP
FC
FC
00
FC
FC
ENDCHAR
STARTCHAR char60
ENCODING 62
SWIDTH 576 0
DWIDTH 6 0
BBX 5 7 1 0
BITMAP
C0
60
30
18
30
60
C0
ENDCHAR
STARTCHAR char63
ENCODING 63
SWIDTH 576 0
DWIDTH 6 0
BBX 5 9 1 -2
BITMAP
F8
F8
18
78
78
60
00
60
60
ENDCHAR
STARTCHAR char64
ENCODING 64
SWIDTH 672 0
DWIDTH 7 0
BBX 6 7 1 0
BITMAP
FC
C4
D4
DC
C0
FC
FC
ENDCHAR
STARTCHAR char65
ENCODING 65
SWIDTH 672 0
DWIDTH 7 0
BBX 5 6 1 0
BITMAP
F8
D8
F8
D8
D8
D8
ENDCHAR
STARTCHAR char66
ENCODING 66
SWIDTH 672 0
DWIDTH 7 0
BBX 5 6 1 0
BITMAP
F8
88
F0
88
88
F8
ENDCHAR
STARTCHAR char67
ENCODING 67
SWIDTH 672 0
DWIDTH 7 0
BBX 5 6 1 0
BITMAP
F8
F8
C0
C0
F8
F8
ENDCHAR
STARTCHAR char68
ENCODING 68
SWIDTH 672 0
DWIDTH 7 0
BBX 5 6 1 0
BITMAP
F0
F8
D8
D8
F8
F0
ENDCHAR
STARTCHAR char69
ENCODING 69
SWIDTH 480 0
DWIDTH 5 0
BBX 5 5 0 0
BITMAP
F8
C0
F8
C0
F8
ENDCHAR
STARTCHAR char70
ENCODING 70
SWIDTH 480 0
DWIDTH 5 0
BBX 5 7 0 0
BITMAP
F8
F8
C0
F8
F8
C0
C0
ENDCHAR
STARTCHAR char71
ENCODING 71
SWIDTH 672 0
DWIDTH 7 0
BBX 5 6 1 0
BITMAP
F8
80
B8
88
88
F8
ENDCHAR
STARTCHAR char72
ENCODING 72
SWIDTH 672 0
DWIDTH 7 0
BBX 5 6 1 0
BITMAP
D8
D8
F8
F8
D8
D8
ENDCHAR
STARTCHAR char73
ENCODING 73
SWIDTH 288 0
DWIDTH 3 0
BBX 2 6 1 0
BITMAP
C0
C0
C0
C0
C0
C0
ENDCHAR
STARTCHAR char74
ENCODING 74
SWIDTH 480 0
DWIDTH 5 0
BBX 4 7 1 -1
BITMAP
30
30
30
30
30
F0
F0
ENDCHAR
STARTCHAR char75
ENCODING 75
SWIDTH 576 0
DWIDTH 6 0
BBX 6 6 1 0
BITMAP
CC
D8
F0
F8
CC
CC
ENDCHAR
STARTCHAR char76
ENCODING 76
SWIDTH 576 0
DWIDTH 6 0
BBX 4 6 1 0
BITMAP
C0
C0
C0
C0
F0
F0
ENDCHAR
STARTCHAR char77
ENCODING 77
SWIDTH 864 0
DWIDTH 9 0
BBX 7 6 1 0
BITMAP
FE
92
92
92
92
92
ENDCHAR
STARTCHAR char78
ENCODING 78
SWIDTH 672 0
DWIDTH 7 0
BBX 5 6 1 0
BITMAP
F8
88
88
88
88
88
ENDCHAR
STARTCHAR char79
ENCODING 79
SWIDTH 672 0
DWIDTH 7 0
BBX 5 6 1 0
BITMAP
F8
88
88
88
88
F8
ENDCHAR
STARTCHAR char80
ENCODING 80
SWIDTH 576 0
DWIDTH 6 0
BBX 5 6 1 0
BITMAP
F8
C8
C8
F8
C0
C0
ENDCHAR
STARTCHAR char81
ENCODING 81
SWIDTH 672 0
DWIDTH 7 0
BBX 6 8 1 -2
BITMAP
F8
F8
D8
D8
F8
F8
0C
0C
ENDCHAR
STARTCHAR char82
ENCODING 82
SWIDTH 672 0
DWIDTH 7 0
BBX 5 6 1 0
BITMAP
F8
88
F8
90
88
88
ENDCHAR
STARTCHAR char50
ENCODING 83
SWIDTH 672 0
DWIDTH 7 0
BBX 5 7 1 0
BITMAP
F8
F8
C0
F8
18
F8
F8
ENDCHAR
STARTCHAR char84
ENCODING 84
SWIDTH 672 0
DWIDTH 7 0
BBX 6 7 1 0
BITMAP
FC
FC
30
30
30
30
30
ENDCHAR
STARTCHAR char85
ENCODING 85
SWIDTH 672 0
DWIDTH 7 0
BBX 5 6 1 0
BITMAP
D8
D8
D8
D8
F8
F8
ENDCHAR
STARTCHAR char86
ENCODING 86
SWIDTH 672 0
DWIDTH 7 0
BBX 5 6 1 0
BITMAP
D8
D8
D8
D8
70
20
ENDCHAR
STARTCHAR char87
ENCODING 87
SWIDTH 864 0
DWIDTH 9 0
BBX 7 6 1 0
BITMAP
92
92
92
92
92
FE
ENDCHAR
STARTCHAR char88
ENCODING 88
SWIDTH 672 0
DWIDTH 7 0
BBX 5 6 1 0
BITMAP
88
50
20
50
88
88
ENDCHAR
STARTCHAR char89
ENCODING 89
SWIDTH 576 0
DWIDTH 6 0
BBX 6 7 0 0
BITMAP
CC
CC
FC
78
30
30
30
ENDCHAR
STARTCHAR char90
ENCODING 90
SWIDTH 672 0
DWIDTH 7 0
BBX 5 7 1 0
BITMAP
F8
F8
30
60
C0
F8
F8
ENDCHAR
STARTCHAR char91
ENCODING 91
SWIDTH 480 0
DWIDTH 5 0
BBX 3 10 1 -2
BITMAP
E0
E0
C0
C0
C0
C0
C0
C0
E0
E0
ENDCHAR
STARTCHAR char92
ENCODING 92
SWIDTH 480 0
DWIDTH 5 0
BBX 5 8 0 -1
BITMAP
C0
C0
60
60
30
30
18
18
ENDCHAR
STARTCHAR char93
ENCODING 93
SWIDTH 480 0
DWIDTH 5 0
BBX 3 10 1 -2
BITMAP
E0
E0
60
60
60
60
60
60
E0
E0
ENDCHAR
STARTCHAR char94
ENCODING 94
SWIDTH 672 0
DWIDTH 7 0
BBX 5 4 1 4
BITMAP
20
70
D8
88
ENDCHAR
STARTCHAR char95
ENCODING 95
SWIDTH 768 0
DWIDTH 8 0
BBX 6 2 1 -1
BITMAP
FC
FC
ENDCHAR
STARTCHAR char96
ENCODING 96
SWIDTH 288 0
DWIDTH 3 0
BBX 3 3 0 4
BITMAP
C0
C0
60
ENDCHAR
STARTCHAR char97
ENCODING 97
SWIDTH 672 0
DWIDTH 7 0
BBX 6 6 1 0
BITMAP
FC
0C
0C
FC
CC
FC
ENDCHAR
STARTCHAR char98
ENCODING 98
SWIDTH 576 0
DWIDTH 6 0
BBX 6 7 0 0
BITMAP
C0
C0
FC
FC
CC
CC
FC
ENDCHAR
STARTCHAR char99
ENCODING 99
SWIDTH 480 0
DWIDTH 5 0
BBX 4 5 1 0
BITMAP
F0
F0
C0
F0
F0
ENDCHAR
STARTCHAR char100
ENCODING 100
SWIDTH 672 0
DWIDTH 7 0
BBX 5 7 1 0
BITMAP
08
08
F8
88
88
88
F8
ENDCHAR
STARTCHAR char101
ENCODING 101
SWIDTH 672 0
DWIDTH 7 0
BBX 5 5 1 0
BITMAP
F8
88
F8
80
F8
ENDCHAR
STARTCHAR char102
ENCODING 102
SWIDTH 480 0
DWIDTH 5 0
BBX 4 7 0 0
BITMAP
70
40
F0
40
40
40
40
ENDCHAR
STARTCHAR char103
ENCODING 103
SWIDTH 672 0
DWIDTH 7 0
BBX 5 7 1 -2
BITMAP
F8
88
88
88
F8
08
F8
ENDCHAR
STARTCHAR char104
ENCODING 104
SWIDTH 576 0
DWIDTH 6 0
BBX 5 6 1 0
BITMAP
C0
C0
F8
F8
D8
D8
ENDCHAR
STARTCHAR char105
ENCODING 105
SWIDTH 288 0
DWIDTH 3 0
BBX 2 7 1 0
BITMAP
C0
00
C0
C0
C0
C0
C0
ENDCHAR
STARTCHAR char106
ENCODING 106
SWIDTH 384 0
DWIDTH 4 0
BBX 3 9 0 -2
BITMAP
60
00
60
60
60
60
60
E0
E0
ENDCHAR
STARTCHAR char107
ENCODING 107
SWIDTH 672 0
DWIDTH 7 0
BBX 6 6 1 0
BITMAP
C8
D8
F0
F0
D8
CC
ENDCHAR
STARTCHAR char108
ENCODING 108
SWIDTH 288 0
DWIDTH 3 0
BBX 2 7 1 0
BITMAP
C0
C0
C0
C0
C0
C0
C0
ENDCHAR
STARTCHAR char109
ENCODING 109
SWIDTH 768 0
DWIDTH 8 0
BBX 8 5 0 0
BITMAP
7F
DB
DB
DB
DB
ENDCHAR
STARTCHAR char110
ENCODING 110
SWIDTH 576 0
DWIDTH 6 0
BBX 5 5 1 0
BITMAP
F8
F8
D8
D8
D8
ENDCHAR
STARTCHAR char111
ENCODING 111
SWIDTH 672 0
DWIDTH 7 0
BBX 5 5 1 0
BITMAP
F8
88
88
88
F8
ENDCHAR
STARTCHAR char112
ENCODING 112
SWIDTH 576 0
DWIDTH 6 0
BBX 6 7 1 -2
BITMAP
FC
C4
C4
C4
FC
C0
C0
ENDCHAR
STARTCHAR char113
ENCODING 113
SWIDTH 672 0
DWIDTH 7 0
BBX 6 7 1 -2
BITMAP
FC
8C
8C
8C
FC
0C
0C
ENDCHAR
STARTCHAR char114
ENCODING 114
SWIDTH 480 0
DWIDTH 5 0
BBX 4 5 1 0
BITMAP
F0
F0
C0
C0
C0
ENDCHAR
STARTCHAR char50
ENCODING 115
SWIDTH 672 0
DWIDTH 7 0
BBX 5 6 1 0
BITMAP
F8
C0
F8
18
18
F8
ENDCHAR
STARTCHAR char116
ENCODING 116
SWIDTH 480 0
DWIDTH 5 0
BBX 4 7 1 0
BITMAP
60
F0
F0
60
60
60
60
ENDCHAR
STARTCHAR char117
ENCODING 117
SWIDTH 672 0
DWIDTH 7 0
BBX 5 5 1 0
BITMAP
D8
D8
D8
F8
F8
ENDCHAR
STARTCHAR char118
ENCODING 118
SWIDTH 672 0
DWIDTH 7 0
BBX 5 5 1 0
BITMAP
D8
D8
D8
70
20
ENDCHAR
STARTCHAR char119
ENCODING 119
SWIDTH 864 0
DWIDTH 9 0
BBX 7 5 1 0
BITMAP
D6
D6
D6
FE
FE
ENDCHAR
STARTCHAR char120
ENCODING 120
SWIDTH 672 0
DWIDTH 7 0
BBX 5 5 1 0
BITMAP
88
50
20
50
88
ENDCHAR
STARTCHAR char121
ENCODING 121
SWIDTH 672 0
DWIDTH 7 0
BBX 5 7 1 -2
BITMAP
88
88
88
88
F8
08
F8
ENDCHAR
STARTCHAR char122
ENCODING 122
SWIDTH 672 0
DWIDTH 7 0
BBX 5 6 1 0
BITMAP
F8
F8
30
60
F8
F8
ENDCHAR
STARTCHAR char123
ENCODING 123
SWIDTH 480 0
DWIDTH 5 0
BBX 4 10 1 -2
BITMAP
70
70
60
60
E0
E0
60
60
70
70
ENDCHAR
STARTCHAR char124
ENCODING 124
SWIDTH 384 0
DWIDTH 4 0
BBX 2 9 1 -1
BITMAP
C0
C0
C0
C0
C0
C0
C0
C0
C0
ENDCHAR
STARTCHAR char123
ENCODING 125
SWIDTH 480 0
DWIDTH 5 0
BBX 4 10 1 -2
BITMAP
E0
E0
60
60
70
70
60
60
E0
E0
ENDCHAR
STARTCHAR char126
ENCODING 126
SWIDTH 576 0
DWIDTH 6 0
BBX 6 2 1 4
BITMAP
6C
D8
ENDCHAR
STARTCHAR char33
ENCODING 161
SWIDTH 288 0
DWIDTH 3 0
BBX 2 7 1 -1
BITMAP
C0
00
C0
C0
C0
C0
C0
ENDCHAR
STARTCHAR char99
ENCODING 162
SWIDTH 672 0
DWIDTH 7 0
BBX 5 7 1 -1
BITMAP
20
F8
A0
A0
A0
F8
20
ENDCHAR
STARTCHAR char163
ENCODING 163
SWIDTH 576 0
DWIDTH 6 0
BBX 4 6 1 0
BITMAP
70
40
40
E0
40
F0
ENDCHAR
STARTCHAR char164
ENCODING 164
SWIDTH 768 0
DWIDTH 8 0
BBX 6 6 1 1
BITMAP
84
78
48
48
78
84
ENDCHAR
STARTCHAR char165
ENCODING 165
SWIDTH 672 0
DWIDTH 7 0
BBX 5 7 1 0
BITMAP
88
50
20
F8
20
F8
20
ENDCHAR
STARTCHAR char166
ENCODING 166
SWIDTH 480 0
DWIDTH 5 0
BBX 2 7 3 0
BITMAP
C0
C0
C0
00
C0
C0
C0
ENDCHAR
STARTCHAR char167
ENCODING 167
SWIDTH 576 0
DWIDTH 6 0
BBX 4 8 1 -1
BITMAP
30
40
60
90
90
60
20
C0
ENDCHAR
STARTCHAR char168
ENCODING 168
SWIDTH 672 0
DWIDTH 7 0
BBX 5 1 1 5
BITMAP
D8
ENDCHAR
STARTCHAR char169
ENCODING 169
SWIDTH 768 0
DWIDTH 8 0
BBX 7 8 0 0
BITMAP
FE
82
BA
A2
A2
BA
82
FE
ENDCHAR
STARTCHAR char170
ENCODING 170
SWIDTH 576 0
DWIDTH 6 0
BBX 4 4 1 3
BITMAP
70
90
B0
50
ENDCHAR
STARTCHAR char187
ENCODING 171
SWIDTH 768 0
DWIDTH 8 0
BBX 6 5 1 1
BITMAP
24
48
90
48
24
ENDCHAR
STARTCHAR char172
ENCODING 172
SWIDTH 672 0
DWIDTH 7 0
BBX 5 3 1 2
BITMAP
F8
F8
18
ENDCHAR
STARTCHAR char174
ENCODING 174
SWIDTH 768 0
DWIDTH 8 0
BBX 7 8 0 0
BITMAP
FE
82
BA
AA
B2
AA
82
FE
ENDCHAR
STARTCHAR char175
ENCODING 175
SWIDTH 672 0
DWIDTH 7 0
BBX 6 2 1 5
BITMAP
FC
FC
ENDCHAR
STARTCHAR char176
ENCODING 176
SWIDTH 480 0
DWIDTH 5 0
BBX 3 3 1 4
BITMAP
E0
A0
E0
ENDCHAR
STARTCHAR char177
ENCODING 177
SWIDTH 576 0
DWIDTH 6 0
BBX 3 5 2 0
BITMAP
40
E0
40
00
E0
ENDCHAR
STARTCHAR char178
ENCODING 178
SWIDTH 480 0
DWIDTH 5 0
BBX 3 5 1 2
BITMAP
E0
20
E0
80
E0
ENDCHAR
STARTCHAR char179
ENCODING 179
SWIDTH 384 0
DWIDTH 4 0
BBX 2 5 1 2
BITMAP
C0
40
C0
40
C0
ENDCHAR
STARTCHAR char180
ENCODING 180
SWIDTH 576 0
DWIDTH 6 0
BBX 3 2 3 5
BITMAP
60
C0
ENDCHAR
STARTCHAR char117
ENCODING 181
SWIDTH 672 0
DWIDTH 7 0
BBX 5 7 1 -1
BITMAP
D8
D8
D8
D8
F8
F8
C0
ENDCHAR
STARTCHAR char112
ENCODING 182
SWIDTH 672 0
DWIDTH 7 0
BBX 6 7 1 0
BITMAP
FC
94
94
94
F4
14
14
ENDCHAR
STARTCHAR char183
ENCODING 183
SWIDTH 480 0
DWIDTH 5 0
BBX 2 2 3 3
BITMAP
C0
C0
ENDCHAR
STARTCHAR char184
ENCODING 184
SWIDTH 576 0
DWIDTH 6 0
BBX 3 3 2 0
BITMAP
40
20
E0
ENDCHAR
STARTCHAR char185
ENCODING 185
SWIDTH 384 0
DWIDTH 4 0
BBX 3 6 1 1
BITMAP
60
E0
E0
60
60
60
ENDCHAR
STARTCHAR char186
ENCODING 186
SWIDTH 576 0
DWIDTH 6 0
BBX 4 4 1 3
BITMAP
F0
90
90
F0
ENDCHAR
STARTCHAR char187
ENCODING 187
SWIDTH 768 0
DWIDTH 8 0
BBX 6 5 1 1
BITMAP
90
48
24
48
90
ENDCHAR
STARTCHAR char179
ENCODING 188
SWIDTH 768 0
DWIDTH 8 0
BBX 6 8 1 0
BITMAP
40
C0
40
48
18
28
3C
08
ENDCHAR
STARTCHAR char189
ENCODING 189
SWIDTH 768 0
DWIDTH 8 0
BBX 6 7 1 1
BITMAP
40
C0
40
58
04
08
1C
ENDCHAR
STARTCHAR char179
ENCODING 190
SWIDTH 768 0
DWIDTH 8 0
BBX 6 8 1 0
BITMAP
C0
40
C0
48
D8
28
3C
08
ENDCHAR
STARTCHAR char63
ENCODING 191
SWIDTH 576 0
DWIDTH 6 0
BBX 4 6 1 0
BITMAP
20
00
20
E0
80
F0
ENDCHAR
STARTCHAR char65
ENCODING 192
SWIDTH 672 0
DWIDTH 7 0
BBX 5 8 1 0
BITMAP
40
20
F8
88
F8
88
88
88
ENDCHAR
STARTCHAR char65
ENCODING 193
SWIDTH 672 0
DWIDTH 7 0
BBX 5 8 1 0
BITMAP
10
20
F8
88
F8
88
88
88
ENDCHAR
STARTCHAR char65
ENCODING 194
SWIDTH 672 0
DWIDTH 7 0
BBX 5 8 1 0
BITMAP
20
50
00
F8
88
F8
88
88
ENDCHAR
STARTCHAR char65
ENCODING 195
SWIDTH 672 0
DWIDTH 7 0
BBX 5 8 1 0
BITMAP
28
50
00
F8
88
F8
88
88
ENDCHAR
STARTCHAR char196
ENCODING 196
SWIDTH 672 0
DWIDTH 7 0
BBX 5 8 1 0
BITMAP
50
00
F8
88
F8
88
88
88
ENDCHAR
STARTCHAR char197
ENCODING 197
SWIDTH 672 0
DWIDTH 7 0
BBX 5 8 1 0
BITMAP
20
00
F8
88
F8
88
88
88
ENDCHAR
STARTCHAR char65
ENCODING 198
SWIDTH 672 0
DWIDTH 7 0
BBX 7 6 0 0
BITMAP
FE
90
FC
90
90
9E
ENDCHAR
STARTCHAR char67
ENCODING 199
SWIDTH 672 0
DWIDTH 7 0
BBX 5 7 1 -1
BITMAP
F8
80
80
80
80
F8
20
ENDCHAR
STARTCHAR char69
ENCODING 200
SWIDTH 576 0
DWIDTH 6 0
BBX 4 8 1 0
BITMAP
40
20
F0
80
F0
80
80
F0
ENDCHAR
STARTCHAR char69
ENCODING 201
SWIDTH 576 0
DWIDTH 6 0
BBX 4 8 1 0
BITMAP
20
40
F0
80
F0
80
80
F0
ENDCHAR
STARTCHAR char69
ENCODING 202
SWIDTH 480 0
DWIDTH 5 0
BBX 4 8 1 0
BITMAP
20
50
00
F0
80
F0
80
F0
ENDCHAR
STARTCHAR char69
ENCODING 203
SWIDTH 480 0
DWIDTH 5 0
BBX 4 7 1 0
BITMAP
50
00
F0
80
F0
80
F0
ENDCHAR
STARTCHAR char73
ENCODING 204
SWIDTH 192 0
DWIDTH 2 0
BBX 2 8 0 0
BITMAP
80
40
00
40
40
40
40
40
ENDCHAR
STARTCHAR char73
ENCODING 205
SWIDTH 288 0
DWIDTH 3 0
BBX 2 8 1 0
BITMAP
40
80
00
80
80
80
80
80
ENDCHAR
STARTCHAR char73
ENCODING 206
SWIDTH 288 0
DWIDTH 3 0
BBX 3 8 0 0
BITMAP
40
A0
00
40
40
40
40
40
ENDCHAR
STARTCHAR char73
ENCODING 207
SWIDTH 288 0
DWIDTH 3 0
BBX 3 7 0 0
BITMAP
A0
00
40
40
40
40
40
ENDCHAR
STARTCHAR char68
ENCODING 208
SWIDTH 576 0
DWIDTH 6 0
BBX 6 6 0 0
BITMAP
78
7C
EC
EC
7C
78
ENDCHAR
STARTCHAR char78
ENCODING 209
SWIDTH 672 0
DWIDTH 7 0
BBX 5 8 1 0
BITMAP
28
50
00
F8
88
88
88
88
ENDCHAR
STARTCHAR char79
ENCODING 210
SWIDTH 672 0
DWIDTH 7 0
BBX 5 8 1 0
BITMAP
40
20
F8
88
88
88
88
F8
ENDCHAR
STARTCHAR char79
ENCODING 211
SWIDTH 672 0
DWIDTH 7 0
BBX 5 8 1 0
BITMAP
10
20
F8
88
88
88
88
F8
ENDCHAR
STARTCHAR char111
ENCODING 212
SWIDTH 672 0
DWIDTH 7 0
BBX 5 8 1 0
BITMAP
20
50
00
F8
88
88
88
F8
ENDCHAR
STARTCHAR char79
ENCODING 213
SWIDTH 672 0
DWIDTH 7 0
BBX 5 8 1 0
BITMAP
28
50
00
F8
88
88
88
F8
ENDCHAR
STARTCHAR char214
ENCODING 214
SWIDTH 576 0
DWIDTH 6 0
BBX 5 8 1 0
BITMAP
50
00
F8
88
88
88
88
F8
ENDCHAR
STARTCHAR char215
ENCODING 215
SWIDTH 576 0
DWIDTH 6 0
BBX 3 3 2 2
BITMAP
A0
40
A0
ENDCHAR
STARTCHAR char111
ENCODING 216
SWIDTH 768 0
DWIDTH 8 0
BBX 7 8 0 -1
BITMAP
02
7C
4C
54
54
64
7C
80
ENDCHAR
STARTCHAR char85
ENCODING 217
SWIDTH 672 0
DWIDTH 7 0
BBX 5 8 1 0
BITMAP
40
20
88
88
88
88
88
F8
ENDCHAR
STARTCHAR char85
ENCODING 218
SWIDTH 672 0
DWIDTH 7 0
BBX 5 8 1 0
BITMAP
10
20
88
88
88
88
88
F8
ENDCHAR
STARTCHAR char85
ENCODING 219
SWIDTH 672 0
DWIDTH 7 0
BBX 5 8 1 0
BITMAP
20
50
00
88
88
88
88
F8
ENDCHAR
STARTCHAR char85
ENCODING 220
SWIDTH 672 0
DWIDTH 7 0
BBX 5 7 1 0
BITMAP
50
00
88
88
88
88
F8
ENDCHAR
STARTCHAR char89
ENCODING 221
SWIDTH 672 0
DWIDTH 7 0
BBX 5 8 1 0
BITMAP
10
20
88
88
F8
20
20
20
ENDCHAR
STARTCHAR char80
ENCODING 222
SWIDTH 672 0
DWIDTH 7 0
BBX 5 8 1 -1
BITMAP
80
80
F8
88
88
F8
80
80
ENDCHAR
STARTCHAR char66
ENCODING 223
SWIDTH 672 0
DWIDTH 7 0
BBX 5 8 1 -2
BITMAP
F0
90
98
88
88
B8
80
80
ENDCHAR
STARTCHAR char97
ENCODING 224
SWIDTH 672 0
DWIDTH 7 0
BBX 5 8 1 0
BITMAP
40
20
00
F8
08
F8
88
F8
ENDCHAR
STARTCHAR char97
ENCODING 225
SWIDTH 672 0
DWIDTH 7 0
BBX 5 8 1 0
BITMAP
10
20
00
F8
08
F8
88
F8
ENDCHAR
STARTCHAR char97
ENCODING 226
SWIDTH 672 0
DWIDTH 7 0
BBX 5 8 1 0
BITMAP
20
50
00
F8
08
F8
88
F8
ENDCHAR
STARTCHAR char97
ENCODING 227
SWIDTH 672 0
DWIDTH 7 0
BBX 5 8 1 0
BITMAP
28
50
00
F8
08
F8
88
F8
ENDCHAR
STARTCHAR char228
ENCODING 228
SWIDTH 672 0
DWIDTH 7 0
BBX 5 7 1 0
BITMAP
50
00
F8
08
F8
88
F8
ENDCHAR
STARTCHAR char229
ENCODING 229
SWIDTH 672 0
DWIDTH 7 0
BBX 5 7 1 0
BITMAP
20
00
F8
08
F8
88
F8
ENDCHAR
STARTCHAR char97
ENCODING 230
SWIDTH 768 0
DWIDTH 8 0
BBX 7 5 0 0
BITMAP
FE
10
FC
90
FE
ENDCHAR
STARTCHAR char99
ENCODING 231
SWIDTH 672 0
DWIDTH 7 0
BBX 5 6 1 -1
BITMAP
F8
80
80
80
F8
20
ENDCHAR
STARTCHAR char101
ENCODING 232
SWIDTH 672 0
DWIDTH 7 0
BBX 5 8 1 0
BITMAP
40
20
00
F8
88
F8
80
F8
ENDCHAR
STARTCHAR char101
ENCODING 233
SWIDTH 672 0
DWIDTH 7 0
BBX 5 8 1 0
BITMAP
10
20
00
F8
88
F8
80
F8
ENDCHAR
STARTCHAR char101
ENCODING 234
SWIDTH 672 0
DWIDTH 7 0
BBX 5 8 1 0
BITMAP
20
50
00
F8
88
F8
80
F8
ENDCHAR
STARTCHAR char101
ENCODING 235
SWIDTH 672 0
DWIDTH 7 0
BBX 5 7 1 0
BITMAP
50
00
F8
88
F8
80
F8
ENDCHAR
STARTCHAR char105
ENCODING 236
SWIDTH 192 0
DWIDTH 2 0
BBX 2 7 0 0
BITMAP
80
40
00
40
40
40
40
ENDCHAR
STARTCHAR char105
ENCODING 237
SWIDTH 288 0
DWIDTH 3 0
BBX 2 7 1 0
BITMAP
40
80
00
80
80
80
80
ENDCHAR
STARTCHAR char105
ENCODING 238
SWIDTH 288 0
DWIDTH 3 0
BBX 3 7 0 0
BITMAP
40
A0
00
40
40
40
40
ENDCHAR
STARTCHAR char105
ENCODING 239
SWIDTH 288 0
DWIDTH 3 0
BBX 3 7 0 0
BITMAP
A0
00
40
40
40
40
40
ENDCHAR
STARTCHAR char240
ENCODING 240
SWIDTH 576 0
DWIDTH 6 0
BBX 4 8 2 0
BITMAP
50
60
90
70
90
90
90
F0
ENDCHAR
STARTCHAR char110
ENCODING 241
SWIDTH 672 0
DWIDTH 7 0
BBX 5 8 1 0
BITMAP
28
50
00
F8
88
88
88
88
ENDCHAR
STARTCHAR char111
ENCODING 242
SWIDTH 672 0
DWIDTH 7 0
BBX 5 8 1 0
BITMAP
40
20
00
F8
88
88
88
F8
ENDCHAR
STARTCHAR char111
ENCODING 243
SWIDTH 672 0
DWIDTH 7 0
BBX 5 8 1 0
BITMAP
10
20
00
F8
88
88
88
F8
ENDCHAR
STARTCHAR char111
ENCODING 244
SWIDTH 672 0
DWIDTH 7 0
BBX 5 8 1 0
BITMAP
20
50
00
F8
88
88
88
F8
ENDCHAR
STARTCHAR char79
ENCODING 245
SWIDTH 672 0
DWIDTH 7 0
BBX 5 8 1 0
BITMAP
28
50
00
F8
88
88
88
F8
ENDCHAR
STARTCHAR char246
ENCODING 246
SWIDTH 576 0
DWIDTH 6 0
BBX 5 7 1 0
BITMAP
50
00
F8
88
88
88
F8
ENDCHAR
STARTCHAR char247
ENCODING 247
SWIDTH 672 0
DWIDTH 7 0
BBX 6 6 1 0
BITMAP
30
00
FC
FC
00
30
ENDCHAR
STARTCHAR char111
ENCODING 248
SWIDTH 768 0
DWIDTH 8 0
BBX 7 7 0 -1
BITMAP
02
7C
4C
54
64
7C
80
ENDCHAR
STARTCHAR char117
ENCODING 249
SWIDTH 672 0
DWIDTH 7 0
BBX 5 7 1 0
BITMAP
40
20
88
88
88
88
F8
ENDCHAR
STARTCHAR char117
ENCODING 250
SWIDTH 672 0
DWIDTH 7 0
BBX 5 7 1 0
BITMAP
10
20
88
88
88
88
F8
ENDCHAR
STARTCHAR char117
ENCODING 251
SWIDTH 672 0
DWIDTH 7 0
BBX 5 8 1 0
BITMAP
20
50
00
88
88
88
88
F8
ENDCHAR
STARTCHAR char117
ENCODING 252
SWIDTH 672 0
DWIDTH 7 0
BBX 5 7 1 0
BITMAP
50
00
88
88
88
88
F8
ENDCHAR
STARTCHAR char121
ENCODING 253
SWIDTH 672 0
DWIDTH 7 0
BBX 5 9 1 -2
BITMAP
10
20
88
88
88
88
F8
08
F8
ENDCHAR
STARTCHAR char112
ENCODING 254
SWIDTH 672 0
DWIDTH 7 0
BBX 5 9 1 -1
BITMAP
80
80
F8
88
88
88
F8
80
80
ENDCHAR
STARTCHAR char121
ENCODING 255
SWIDTH 672 0
DWIDTH 7 0
BBX 5 9 1 -2
BITMAP
50
00
88
88
88
88
F8
08
F8
ENDCHAR
ENDFONT
